<?xml version="1.0" standalone="no"?>
<!DOCTYPE svg PUBLIC "-//W3C//DTD SVG 20010904//EN"
 "http://www.w3.org/TR/2001/REC-SVG-20010904/DTD/svg10.dtd">
<svg version="1.0" xmlns="http://www.w3.org/2000/svg"
 width="912.000000pt" height="912.000000pt" viewBox="0 0 912.000000 912.000000"
 preserveAspectRatio="xMidYMid meet">
<metadata>
Created by potrace 1.14, written by Peter Selinger 2001-2017
</metadata>
<g transform="translate(0.000000,912.000000) scale(0.100000,-0.100000)"
fill="#000000" stroke="none">
<path d="M8160 8351 c-69 -21 -130 -73 -166 -141 -18 -34 -19 -143 -19 -3640
0 -1983 3 -3615 7 -3628 16 -53 74 -117 135 -148 51 -27 69 -31 119 -28 33 1
68 5 79 7 11 3 40 8 65 12 25 3 59 9 75 12 42 7 66 10 93 12 28 1 122 93 172
166 19 28 37 52 42 53 4 2 8 8 8 13 0 5 19 39 43 76 24 38 59 97 78 133 19 36
36 67 39 70 9 9 120 240 120 250 0 6 4 18 10 28 14 25 42 94 48 117 2 11 6
1357 7 2991 l3 2971 -27 59 c-23 52 -72 141 -93 169 -200 271 -279 359 -381
427 l-42 28 -195 -1 c-107 0 -206 -4 -220 -8z"/>
<path d="M870 8309 c-71 -9 -115 -17 -165 -31 -22 -6 -47 -13 -55 -14 -23 -5
-185 -86 -188 -96 -2 -4 -8 -8 -14 -8 -32 0 -203 -159 -263 -246 -19 -27 -38
-54 -42 -59 -26 -33 -98 -199 -108 -248 -2 -10 -6 -26 -9 -35 -24 -78 -29
-334 -7 -418 7 -29 14 -58 15 -65 2 -8 7 -23 11 -34 4 -11 19 -49 33 -85 14
-36 40 -89 59 -118 18 -29 33 -55 33 -57 0 -5 30 -41 94 -113 140 -155 380
-275 596 -297 61 -7 152 -9 175 -5 6 2 13 2 17 1 4 0 31 4 60 9 29 5 64 12 78
14 14 3 25 5 25 6 0 1 9 4 50 14 64 15 216 96 299 161 38 29 125 114 156 152
56 69 155 250 165 304 2 11 7 24 11 31 4 6 8 21 10 32 1 12 8 48 14 80 22 114
15 286 -16 398 -8 29 -16 60 -18 68 -48 184 -242 426 -421 526 -11 6 -36 20
-55 31 -139 78 -373 123 -540 102z"/>
<path d="M5937 8314 c-1 -1 -27 -4 -57 -8 -420 -49 -764 -380 -834 -801 -1 -5
-4 -14 -7 -20 -5 -9 -3 -262 3 -307 1 -10 6 -18 10 -18 4 0 5 -6 3 -12 -12
-32 75 -237 148 -352 28 -45 189 -216 202 -216 3 0 26 -15 52 -34 92 -66 254
-133 361 -151 82 -13 98 -15 175 -15 295 -2 576 131 762 361 77 95 153 249
184 374 32 128 34 300 6 440 -21 101 -105 291 -152 343 -7 7 -13 17 -13 22 0
14 -153 166 -210 208 -112 83 -263 146 -409 172 -54 10 -217 20 -224 14z"/>
<path d="M3417 6914 c-1 -1 -27 -5 -57 -8 -202 -19 -410 -123 -567 -283 -223
-227 -319 -550 -258 -868 28 -143 97 -289 193 -409 35 -43 76 -89 90 -101 15
-13 38 -33 52 -45 133 -117 345 -203 535 -216 39 -3 75 -5 80 -6 18 -1 150 12
175 17 14 4 36 8 50 11 136 28 321 128 438 238 74 69 217 266 194 266 -4 0 -2
4 3 8 15 11 32 49 60 137 33 102 38 133 41 285 3 177 -28 310 -108 460 -150
278 -397 453 -718 506 -34 6 -199 12 -203 8z"/>
<path d="M830 5518 c0 -5 -4 -7 -8 -4 -4 3 -28 0 -53 -5 -24 -6 -51 -12 -59
-14 -8 -2 -27 -8 -41 -13 -15 -6 -30 -8 -33 -5 -3 4 -6 1 -6 -5 0 -7 -6 -12
-12 -12 -22 0 -130 -55 -197 -100 -79 -53 -197 -171 -252 -252 -56 -82 -116
-216 -141 -312 -27 -103 -33 -324 -12 -412 8 -33 16 -68 18 -79 25 -119 141
-321 242 -420 80 -78 180 -155 202 -155 6 0 12 -4 14 -8 3 -8 92 -53 113 -58
6 -1 21 -6 35 -12 14 -5 28 -10 32 -11 4 -1 22 -7 40 -12 18 -6 44 -12 58 -15
14 -2 36 -6 50 -8 14 -3 25 -5 25 -6 0 -7 209 -4 250 3 152 25 208 43 324 104
102 53 121 68 215 158 245 236 344 550 282 890 -13 67 -59 194 -94 258 -119
216 -293 370 -519 456 -56 22 -61 23 -168 45 -75 15 -305 18 -305 4z"/>
<path d="M5877 5524 c-3 -3 -22 -7 -43 -10 -22 -3 -57 -10 -79 -16 -22 -6 -45
-12 -52 -14 -37 -7 -180 -77 -242 -119 -79 -53 -226 -193 -236 -225 -4 -11
-11 -20 -16 -20 -5 0 -9 -7 -9 -15 0 -8 -4 -15 -10 -15 -5 0 -10 -6 -10 -14 0
-8 -4 -16 -9 -18 -22 -8 -108 -225 -117 -293 -1 -11 -3 -20 -4 -20 -13 0 -18
-274 -6 -340 33 -177 102 -328 211 -460 67 -80 176 -177 234 -207 14 -7 28
-15 31 -18 6 -7 134 -64 175 -78 25 -9 70 -20 90 -23 2 0 28 -6 57 -13 53 -12
247 -13 303 -2 126 25 169 38 251 76 78 36 179 100 238 150 142 122 265 325
307 508 20 87 21 97 23 212 6 327 -153 632 -424 813 -30 20 -60 41 -67 47 -7
5 -18 10 -26 10 -7 0 -17 4 -23 10 -8 8 -159 68 -174 68 -3 0 -16 3 -30 6 -14
3 -38 9 -55 12 -38 8 -281 15 -288 8z"/>
<path d="M3489 4165 c-2 -2 -40 -6 -84 -10 -44 -3 -100 -11 -125 -16 -25 -6
-53 -12 -62 -14 -36 -8 -193 -76 -196 -85 -2 -6 -12 -10 -23 -10 -10 0 -19 -3
-19 -8 0 -4 -15 -15 -32 -25 -28 -15 -63 -42 -113 -86 -26 -23 -104 -110 -130
-146 -17 -22 -34 -43 -40 -47 -5 -4 -6 -8 -1 -8 5 0 2 -8 -7 -17 -35 -40 -112
-234 -122 -311 -3 -20 -8 -53 -11 -72 -12 -73 -7 -200 11 -305 40 -234 212
-490 417 -622 196 -126 430 -179 663 -150 90 11 198 44 281 84 64 31 177 102
182 115 2 5 8 8 13 8 13 0 126 118 171 178 121 164 185 358 185 569 1 65 -5
145 -12 178 -7 33 -11 63 -8 68 2 4 -1 7 -8 7 -7 0 -10 3 -6 6 18 18 -90 245
-161 337 -43 55 -163 168 -217 204 -106 70 -241 132 -320 146 -17 3 -41 8 -55
11 -14 4 -54 9 -89 12 -36 3 -68 7 -72 9 -3 3 -8 3 -10 0z"/>
<path d="M825 2734 c-136 -20 -302 -84 -392 -150 -17 -13 -34 -24 -37 -24 -3
0 -14 -8 -25 -17 -152 -144 -159 -153 -205 -222 -51 -78 -83 -144 -111 -223
-44 -129 -49 -164 -50 -313 0 -148 9 -211 47 -320 115 -335 403 -580 758 -644
48 -8 265 -8 318 1 60 10 184 48 200 60 6 6 12 8 12 4 0 -4 11 1 25 10 14 9
25 14 25 10 0 -10 166 100 206 136 31 28 73 71 129 132 64 69 163 274 182 375
2 14 6 28 8 32 8 12 18 131 18 204 0 287 -128 552 -360 747 -66 56 -189 126
-258 148 -22 7 -46 17 -52 23 -7 5 -13 7 -13 3 0 -3 -11 -1 -25 4 -81 31 -276
43 -400 24z"/>
<path d="M5937 2744 c-1 -1 -33 -5 -71 -9 -194 -19 -420 -135 -567 -290 -135
-144 -212 -298 -256 -515 -7 -36 -11 -283 -4 -295 3 -5 6 -12 6 -15 23 -153
101 -328 200 -449 41 -50 144 -147 186 -176 24 -17 46 -33 49 -36 19 -24 234
-112 305 -125 11 -2 43 -8 70 -13 99 -19 275 -9 400 22 79 20 222 87 299 141
125 87 249 231 309 359 15 31 27 59 27 62 0 3 6 18 14 34 9 16 12 31 9 35 -4
3 0 6 7 6 7 0 11 2 8 6 -3 3 0 25 8 50 7 24 16 68 20 97 9 66 9 241 0 287 -20
105 -30 146 -38 154 -4 6 -8 18 -8 28 0 23 -92 200 -126 242 -13 17 -34 44
-47 59 -30 39 -59 67 -68 67 -4 0 -11 9 -14 21 -4 11 -9 18 -12 15 -3 -2 -15
4 -27 16 -57 54 -240 158 -305 173 -9 2 -41 11 -71 19 -30 9 -80 18 -110 22
-55 7 -188 12 -193 8z"/>
</g>
</svg>
