<?xml version="1.0" encoding="UTF-8"?>
<svg width="114.37" height="95.256" version="1.1" viewBox="0 0 114.37 95.256" xml:space="preserve" xmlns="http://www.w3.org/2000/svg" xmlns:cc="http://creativecommons.org/ns#" xmlns:dc="http://purl.org/dc/elements/1.1/" xmlns:rdf="http://www.w3.org/1999/02/22-rdf-syntax-ns#"><metadata><rdf:RDF><cc:Work rdf:about=""><dc:format>image/svg+xml</dc:format><dc:type rdf:resource="http://purl.org/dc/dcmitype/StillImage"/><dc:title/></cc:Work></rdf:RDF></metadata><defs><clipPath id="clipPath181"><path d="m0 792h612v-792h-612z"/></clipPath></defs><g transform="matrix(1.3333 0 0 -1.3333 -180.81 1006.6)"><g clip-path="url(#clipPath181)"><g transform="translate(153.81 745.44)"><path d="m0 0c0-5.027-4.075-9.102-9.102-9.102s-9.103 4.075-9.103 9.102 4.076 9.102 9.103 9.102 9.102-4.075 9.102-9.102" fill="#f68c3c"/></g><g transform="translate(177.48 732.29)"><path d="m0 0c0-5.027-4.075-9.102-9.102-9.102s-9.102 4.075-9.102 9.102 4.075 9.102 9.102 9.102 9.102-4.075 9.102-9.102" fill="#f68c3c"/></g><g transform="translate(177.48 706.39)"><path d="m0 0c0-5.027-4.075-9.102-9.102-9.102s-9.102 4.075-9.102 9.102 4.075 9.103 9.102 9.103 9.102-4.076 9.102-9.103" fill="#f68c3c"/></g><g transform="translate(153.81 693.09)"><path d="m0 0c0-5.027-4.075-9.102-9.102-9.102s-9.103 4.075-9.103 9.102 4.076 9.102 9.103 9.102 9.102-4.075 9.102-9.102" fill="#f68c3c"/></g><g transform="translate(153.81 719.26)"><path d="m0 0c0-5.027-4.075-9.102-9.102-9.102s-9.103 4.075-9.103 9.102 4.076 9.102 9.103 9.102 9.102-4.075 9.102-9.102" fill="#f68c3c"/></g><g transform="translate(201.14 745.44)"><path d="m0 0c0-5.027-4.075-9.102-9.102-9.102s-9.102 4.075-9.102 9.102 4.075 9.102 9.102 9.102 9.102-4.075 9.102-9.102" fill="#f68c3c"/></g><g transform="translate(201.14 693.09)"><path d="m0 0c0-5.027-4.075-9.102-9.102-9.102s-9.102 4.075-9.102 9.102 4.075 9.102 9.102 9.102 9.102-4.075 9.102-9.102" fill="#f68c3c"/></g><g transform="translate(201.14 719.26)"><path d="m0 0c0-5.027-4.075-9.102-9.102-9.102s-9.102 4.075-9.102 9.102 4.075 9.102 9.102 9.102 9.102-4.075 9.102-9.102" fill="#f68c3c"/></g><g transform="translate(215.97 683.99)"><path d="m0 0-2.906-0.445c-1.375 0-2.5 1.125-2.5 2.5v66.442c0 1.375 1.125 2.5 2.5 2.5h2.906c1.375 0 5.405-5.342 5.405-6.717v-55.178c0-1.375-4.03-9.102-5.405-9.102" fill="#d53e29"/></g></g></g></svg>
